<svg  viewBox="0 0 24 24">
	<path
		fill="#EA4335"
		d="M12 5c1.6 0 3 .5 4.1 1.5l3.1-3.1C17.1 1.8 14.7 1 12 1S6.9 1.8 4.8 3.4l3.1 3.1C9 5.5 10.4 5 12 5z"
	/>
	<path
		fill="#4285F4"
		d="M23 12c0-.8-.1-1.6-.2-2.3H12v4.6h6.2c-.3 1.4-1 2.6-2.1 3.4l3.3 2.6c1.9-1.8 3-4.3 3-7.3z"
	/>
	<path
		fill="#FBBC05"
		d="M5 12c0-1 .2-1.9.5-2.8L2.4 6.1C1.5 7.9 1 9.9 1 12s.5 4.1 1.4 5.9l3.1-3.1C5.2 13.9 5 13 5 12z"
	/>
	<path
		fill="#34A853"
		d="M12 19c-1.6 0-3-.5-4.1-1.5l-3.1 3.1C6.9 22.2 9.3 23 12 23c2.7 0 5.1-.8 7-2.3l-3.3-2.6c-1 .7-2.3 1.1-3.7 1.1z"
	/>
</svg>